HIERARCHY
ROOT SpineBase
{
  OFFSET 0.000000 0.000000 0.000000
  CHANNELS 6 Xposition Yposition Zposition Zrotation Xrotation Yrotation
  JOINT SpineMid
  {
    OFFSET 0.000000 31.332369 0.000000
    CHANNELS 3 Zrotation Xrotation Yrotation
    JOINT SpineShoulder
    {
      OFFSET 0.217132 23.239671 -0.596998
      CHANNELS 3 Zrotation Xrotation Yrotation
      JOINT Neck
      {
        OFFSET 0.120226 7.691781 -0.497209
        CHANNELS 3 Zrotation Xrotation Yrotation
        JOINT Head
        {
          OFFSET 3.852179 13.472064 3.811772
          CHANNELS 3 Zrotation Xrotation Yrotation
          End Site
          {
            OFFSET 0 0 0
          }
        }
      }
      JOINT ShoulderLeft
      {
        OFFSET -11.673166 -2.701441 -11.017963
        CHANNELS 3 Zrotation Xrotation Yrotation
        JOINT ElbowLeft
        {
          OFFSET -7.288766 -23.939901 -6.641998
          CHANNELS 3 Zrotation Xrotation Yrotation
          JOINT WristLeft
          {
            OFFSET 0.781310 -22.562517 -7.849313
            CHANNELS 3 Zrotation Xrotation Yrotation
            JOINT HandLeft
            {
              OFFSET -0.465023 -8.666895 -0.461923
              CHANNELS 3 Zrotation Xrotation Yrotation
              JOINT HandTipLeft
              {
                OFFSET 0.163048 -8.099734 -1.288420
                CHANNELS 3 Zrotation Xrotation Yrotation
                End Site
                {
                  OFFSET 0 0 0
                }
              }
              JOINT ThumbLeft
              {
                OFFSET -0.309886 -4.487576 -3.806793
                CHANNELS 3 Zrotation Xrotation Yrotation
                End Site
                {
                  OFFSET 0 0 0
                }
              }
            }
          }
        }
      }
      JOINT ShoulderRight
      {
        OFFSET 13.461005 -4.345500 10.985625
        CHANNELS 3 Zrotation Xrotation Yrotation
        JOINT ElbowRight
        {
          OFFSET 4.322675 -25.627132 8.024557
          CHANNELS 3 Zrotation Xrotation Yrotation
          JOINT WristRight
          {
            OFFSET 4.349642 -24.105477 1.705905
            CHANNELS 3 Zrotation Xrotation Yrotation
            JOINT HandRight
            {
              OFFSET 3.514521 -8.518867 1.823115
              CHANNELS 3 Zrotation Xrotation Yrotation
              JOINT HandTipRight
              {
                OFFSET 1.498760 -5.718576 -0.176313
                CHANNELS 3 Zrotation Xrotation Yrotation
                End Site
                {
                  OFFSET 0 0 0
                }
              }
              JOINT ThumbRight
              {
                OFFSET 3.249752 -1.270113 -3.720329
                CHANNELS 3 Zrotation Xrotation Yrotation
                End Site
                {
                  OFFSET 0 0 0
                }
              }
            }
          }
        }
      }
    }
  }
  JOINT HipLeft
  {
    OFFSET -4.694360 1.492811 -7.226931
    CHANNELS 3 Zrotation Xrotation Yrotation
    JOINT KneeLeft
    {
      OFFSET -9.292279 -36.652301 -3.978710
      CHANNELS 3 Zrotation Xrotation Yrotation
      JOINT AnkleLeft
      {
        OFFSET -5.723518 -38.103805 6.946433
        CHANNELS 3 Zrotation Xrotation Yrotation
        JOINT FootLeft
        {
          OFFSET 1.224324 -7.911693 -6.483344
          CHANNELS 3 Zrotation Xrotation Yrotation
          End Site
          {
            OFFSET 0 0 0
          }
        }
      }
    }
  }
  JOINT HipRight
  {
    OFFSET 5.510585 0.222844 0.341957
    CHANNELS 3 Zrotation Xrotation Yrotation
    JOINT KneeRight
    {
      OFFSET -2.464834 -38.738660 3.939785
      CHANNELS 3 Zrotation Xrotation Yrotation
      JOINT AnkleRight
      {
        OFFSET -4.220751 -36.132366 7.636958
        CHANNELS 3 Zrotation Xrotation Yrotation
        JOINT FootRight
        {
          OFFSET 3.925936 -7.651671 -5.205320
          CHANNELS 3 Zrotation Xrotation Yrotation
          End Site
          {
            OFFSET 0 0 0
          }
        }
      }
    }
  }
}
MOTION
Frames: 13
Frame Time: 0.033333
-34.622081 84.388181 340.837753 -0.000000 0.000000 -36.563894 -0.000000 0.000000 36.563894 -0.000000 0.000000 0.000000 -0.000000 0.000000 0.000000 0.000000 0.000000 0.000000 -0.000000 0.000000 0.000000 -0.000000 0.000000 0.000000 -0.000000 0.000000 0.000000 -0.000000 0.000000 0.000000 0.000000 0.000000 0.000000 0.000000 0.000000 0.000000 -0.000000 0.000000 0.000000 -0.000000 0.000000 0.000000 -0.000000 0.000000 0.000000 -0.000000 0.000000 0.000000 0.000000 0.000000 0.000000 0.000000 0.000000 0.000000 -0.000000 0.000000 36.563894 -0.000000 0.000000 0.000000 -0.000000 0.000000 0.000000 0.000000 0.000000 0.000000 -0.000000 0.000000 36.563894 -0.000000 0.000000 0.000000 -0.000000 0.000000 0.000000 0.000000 0.000000 0.000000
-34.465094 84.319211 340.910004 -0.078023 0.123642 -36.105175 0.135896 -0.053919 36.105323 -0.000000 0.000000 0.000000 -0.000000 0.000000 0.000000 0.000000 0.000000 0.000000 -0.000000 0.000000 0.000000 -0.652338 -1.168321 0.180511 0.883825 -2.780771 0.008727 -0.071000 1.981807 -0.265285 0.000000 0.000000 0.000000 0.000000 0.000000 0.000000 -0.050513 1.004301 0.154466 -0.392761 -0.151610 -0.035571 -4.337243 -1.122309 -1.360576 2.808590 -1.613201 0.669513 0.000000 0.000000 0.000000 0.000000 0.000000 0.000000 0.135896 -0.053919 36.105323 -0.000000 0.000000 0.000000 -0.000000 0.000000 0.000000 0.000000 0.000000 0.000000 0.135896 -0.053919 36.105323 -0.000000 0.000000 0.000000 -0.000000 0.000000 0.000000 0.000000 0.000000 0.000000
-34.319023 84.256692 340.953610 -0.151188 0.221767 -35.697368 0.252183 -0.091879 35.697863 -0.000000 0.000000 0.000000 -0.245411 -0.727552 0.276242 0.000000 0.000000 0.000000 0.413082 -1.195486 0.254710 -1.664595 -1.038766 0.114526 1.554981 -5.166630 0.004582 -0.103034 3.780775 -0.487689 0.000000 0.000000 0.000000 0.000000 0.000000 0.000000 -0.150556 1.722738 0.246943 -0.854626 -0.432010 -0.099689 -7.810487 -2.000059 -2.670657 5.049217 -2.539710 1.331615 0.000000 0.000000 0.000000 0.000000 0.000000 0.000000 0.252183 -0.091879 35.697863 -0.000000 0.000000 0.000000 1.143707 0.058938 -0.926882 0.000000 0.000000 0.000000 0.252183 -0.091879 35.697863 -0.000000 0.000000 0.000000 -0.000000 0.000000 0.000000 0.000000 0.000000 0.000000
-34.183868 84.200625 340.968571 -0.219515 0.294416 -35.338480 0.349362 -0.113198 35.339389 -0.000000 0.000000 0.000000 -0.400333 -0.987991 0.392895 0.000000 0.000000 0.000000 0.550736 -1.796102 0.405073 -2.344672 -1.405291 0.133320 1.988897 -6.999418 -0.023449 -0.068128 5.232572 -0.661364 0.000000 0.000000 0.000000 0.000000 0.000000 0.000000 -0.298259 2.157120 0.277878 -1.380124 -0.867043 -0.197452 -10.493203 -2.654958 -3.853126 6.682409 -2.901170 1.998705 0.000000 0.000000 0.000000 0.000000 0.000000 0.000000 0.349362 -0.113198 35.339389 -0.000000 0.000000 0.000000 1.587346 0.201129 -1.267924 0.000000 0.000000 0.000000 0.349362 -0.113198 35.339389 -0.000000 0.000000 0.000000 -0.792277 -0.895974 0.073724 0.000000 0.000000 0.000000
-34.059630 84.151010 340.954887 -0.283024 0.341623 -35.026844 0.427842 -0.117300 35.028126 -0.000000 0.000000 0.000000 -0.577113 -1.179523 0.495358 0.000000 0.000000 0.000000 0.643487 -2.397703 0.569320 -2.923749 -1.669083 0.127400 2.166083 -8.139949 -0.082234 0.056652 6.191490 -0.783687 0.000000 0.000000 0.000000 0.000000 0.000000 0.000000 -0.492802 2.308879 0.246861 -1.959409 -1.466709 -0.330612 -12.462186 -3.126473 -4.868499 7.690871 -2.777399 2.695484 0.000000 0.000000 0.000000 0.000000 0.000000 0.000000 0.427842 -0.117300 35.028126 -0.000000 0.000000 0.000000 1.945679 0.420337 -1.527958 0.000000 0.000000 0.000000 0.427842 -0.117300 35.028126 -0.000000 0.000000 0.000000 -1.349361 -1.221383 0.280646 0.000000 0.000000 0.000000
-33.946308 84.107846 340.912558 -0.341732 0.363407 -34.761110 0.487944 -0.103706 34.762635 -0.000000 0.000000 0.000000 -0.775964 -1.302155 0.583830 0.000000 0.000000 0.000000 0.692197 -2.999648 0.746344 -3.402285 -1.829985 0.097159 2.073036 -8.467249 -0.171079 0.289301 6.530702 -0.853383 0.000000 0.000000 0.000000 0.000000 0.000000 0.000000 -0.734403 2.178758 0.152622 -2.578173 -2.223714 -0.496850 -13.788422 -3.468721 -5.712356 8.056111 -2.217046 3.460651 0.000000 0.000000 0.000000 0.000000 0.000000 0.000000 0.487944 -0.103706 34.762635 -0.000000 0.000000 0.000000 2.218762 0.717268 -1.707313 0.000000 0.000000 0.000000 0.487944 -0.103706 34.762635 -0.000000 0.000000 0.000000 -2.054408 -1.563914 0.577902 0.000000 0.000000 0.000000
-33.824469 84.074453 340.814068 -0.331348 0.356699 -34.601618 0.475297 -0.105439 34.603086 -0.000000 0.000000 0.000000 -1.119073 -1.312677 0.679477 0.000000 0.000000 0.000000 0.919824 -3.723968 0.919420 -3.864903 -1.931460 0.020400 3.001943 -6.853264 -0.316286 -0.849301 5.762480 -0.558472 0.000000 0.000000 0.000000 0.000000 0.000000 0.000000 -1.131154 2.040310 0.010197 -3.213195 -3.137915 -0.675646 -14.399240 -3.755848 -6.376708 8.106080 -0.259965 4.639677 0.000000 0.000000 0.000000 0.000000 0.000000 0.000000 0.475297 -0.105439 34.603086 -0.000000 0.000000 0.000000 2.553327 1.240328 -1.904759 0.000000 0.000000 0.000000 0.475297 -0.105439 34.603086 -0.627238 -0.663133 -0.058632 -2.526977 -1.214184 1.251622 0.000000 0.000000 0.000000
-33.726654 84.043480 340.700424 -0.346179 0.334939 -34.491933 0.474995 -0.080015 34.493276 -0.000000 0.000000 0.000000 -1.495275 -1.326883 0.784834 0.000000 0.000000 0.000000 0.995549 -4.385897 1.112623 -4.152379 -1.704227 -0.067791 2.272635 -4.823388 -0.424013 -0.325385 2.943647 -0.552829 0.000000 0.000000 0.000000 0.000000 0.000000 0.000000 -1.510715 1.375655 -0.224226 -3.983204 -4.222000 -0.916584 -13.980588 -5.227545 -7.575707 5.548771 1.944094 6.263549 0.000000 0.000000 0.000000 0.000000 0.000000 0.000000 0.474995 -0.080015 34.493276 -0.000000 0.000000 0.000000 2.585109 1.866740 -1.840820 0.000000 0.000000 0.000000 0.474995 -0.080015 34.493276 -0.739756 -0.741383 -0.074381 -6.017887 -5.217890 1.443076 0.000000 0.000000 0.000000
-33.660597 84.021510 340.587434 -0.430051 0.280350 -34.373785 0.513233 0.011414 34.374786 -0.000000 0.000000 0.000000 -1.649294 -1.228673 0.799456 0.000000 0.000000 0.000000 0.800530 -4.933227 1.334004 -4.204346 -1.545766 -0.195816 -0.054633 -2.336486 -0.377009 1.497910 0.863401 -0.620547 0.000000 0.000000 0.000000 0.000000 0.000000 0.000000 -1.852384 -0.116047 -0.602981 -4.724050 -4.818365 -1.033754 -13.435799 -5.999012 -8.365608 2.567470 3.748196 8.027822 0.000000 0.000000 0.000000 0.000000 0.000000 0.000000 0.513233 0.011414 34.374786 -0.000000 0.000000 0.000000 2.651535 2.096623 -1.862501 0.000000 0.000000 0.000000 0.513233 0.011414 34.374786 -0.837024 -0.872384 -0.081181 -3.531466 -0.943643 2.174002 0.000000 0.000000 0.000000
-33.623894 84.005846 340.483692 -0.536229 0.198606 -34.241902 0.555036 0.137552 34.242166 -0.000000 0.000000 0.000000 -1.730504 -1.112681 0.789774 0.000000 0.000000 0.000000 0.245118 -5.357930 1.597611 -3.960218 -1.266073 -0.368629 -3.243269 -0.252558 -0.152797 4.036738 -0.894266 -0.714443 0.000000 0.000000 0.000000 0.000000 0.000000 0.000000 -2.126739 -2.266669 -1.087113 -5.069051 -4.507844 -0.872526 -13.478367 -7.048270 -9.367294 -0.005550 4.395508 9.524806 0.000000 0.000000 0.000000 0.000000 0.000000 0.000000 0.796532 -0.641507 34.466920 -0.338248 1.351194 -0.406328 3.130727 1.797929 -1.526878 0.000000 0.000000 0.000000 0.555036 0.137552 34.242166 -0.851437 -0.880710 -0.083419 -2.375990 1.834237 2.855382 0.000000 0.000000 0.000000
-33.627645 83.996250 340.407880 -0.688075 0.059749 -33.990877 0.603909 0.335133 33.989470 -0.582780 -0.870816 -0.028473 -1.206866 0.093556 0.761295 0.000000 0.000000 0.000000 -0.148342 -4.913414 1.983317 -4.073024 -1.189578 -0.387337 -6.346977 1.341099 -0.016570 6.325949 -1.576754 -0.672694 0.000000 0.000000 0.000000 0.000000 0.000000 0.000000 -1.799757 -3.976715 -1.594173 -5.388944 -4.340570 -0.720942 -13.820252 -6.237767 -9.330763 -2.217030 2.598233 9.876528 0.000000 0.000000 0.000000 0.000000 0.000000 0.000000 1.066420 -0.486796 34.236843 -0.593695 1.665834 -0.464158 3.018948 2.099608 -1.249416 0.000000 0.000000 0.000000 0.603909 0.335133 33.989470 -0.849702 -0.851545 -0.086227 -1.601007 3.937125 3.398129 0.000000 0.000000 0.000000
-33.651334 83.982580 340.385717 -0.871899 -0.142534 -33.645392 0.411465 -0.658141 33.626415 -0.072440 -0.436084 -0.029985 -1.134824 0.875260 0.798848 0.000000 0.000000 0.000000 -1.047172 -4.849513 2.441930 -4.583945 -1.704042 -0.279300 -8.734856 2.441333 0.020267 8.197529 -3.393815 -0.794593 0.000000 0.000000 0.000000 0.000000 0.000000 0.000000 -1.658775 -6.183524 -2.141729 -5.946199 -4.481786 -0.644964 -14.490338 -3.500318 -8.160121 -1.402238 0.930830 9.331350 0.000000 0.000000 0.000000 0.000000 0.000000 0.000000 1.274002 -0.200623 33.887999 -0.794068 1.840890 -0.486264 2.962948 2.347643 -1.089994 0.000000 0.000000 0.000000 0.646900 0.601713 33.640911 -0.877133 -0.779775 -0.100041 -1.253070 4.867153 3.681062 0.000000 0.000000 0.000000
-33.686517 83.992101 340.446434 -1.125677 -0.444806 -33.319045 0.300329 -0.977246 33.285784 -0.111573 -0.536740 -0.050509 -0.711387 1.916393 0.758127 0.000000 0.000000 0.000000 -2.205035 -4.936193 3.104798 -5.791840 -2.229832 0.039691 -8.264053 2.360635 -0.676392 8.133766 -2.710130 -0.731935 0.000000 0.000000 0.000000 0.000000 0.000000 0.000000 -0.992984 -8.895257 -2.669015 -7.687281 -3.202939 -0.221498 -14.372715 -1.678148 -7.448702 -0.839533 -1.080231 8.661532 0.000000 0.000000 0.000000 0.000000 0.000000 0.000000 1.416784 0.303136 33.522238 -0.992040 1.907087 -0.482008 3.057620 2.351551 -1.079794 0.000000 0.000000 0.000000 0.696422 0.989960 33.308659 -0.902141 -0.647671 -0.119869 -0.764810 5.306357 3.642383 0.000000 0.000000 0.000000
